<?xml version="1.0" encoding="iso-8859-1"?>
<!-- Generator: Adobe Illustrator 16.0.0, SVG Export Plug-In . SVG Version: 6.00 Build 0)  -->
<!DOCTYPE svg PUBLIC "-//W3C//DTD SVG 1.1//EN" "http://www.w3.org/Graphics/SVG/1.1/DTD/svg11.dtd">
<svg version="1.1" id="Layer_1" xmlns="http://www.w3.org/2000/svg" xmlns:xlink="http://www.w3.org/1999/xlink" x="0px" y="0px"
	 width="181px" height="58px" viewBox="0 0 181 58" style="enable-background:new 0 0 181 58;" xml:space="preserve">
<g>
	<g>
		<linearGradient id="SVGID_1_" gradientUnits="userSpaceOnUse" x1="11.1162" y1="37.7402" x2="58.0367" y2="24.3249">
			<stop  offset="0" style="stop-color:#0057A2"/>
			<stop  offset="1" style="stop-color:#27A8E0"/>
		</linearGradient>
		<path style="fill:url(#SVGID_1_);" d="M41.554,3.089c2.844,2.899,4.789,6.626,5.566,10.609c0.705,3.611,0.314,7.373-0.556,10.924
			c-0.869,3.551-2.417,6.974-4.784,9.78c-2.497,2.961-5.868,5.078-9.578,6.166c-6.446,1.891-13.549,0.502-18.821-3.648
			c0,7.162,3.196,13.869,9.203,17.933c1.41,0.954,2.919,1.789,4.517,2.396c0.706,0.269,1.613,0.677,2.378,0.667
			c0.781-0.01,1.562-0.057,2.339-0.124c3.638-0.314,7.146-1.306,10.411-2.945c6.307-3.167,11.328-8.657,13.923-15.22
			c2.92-7.388,2.634-15.853-0.779-23.028C52.423,10.4,47.321,5.5,41.107,2.642C41.256,2.791,41.405,2.94,41.554,3.089z"/>
		<linearGradient id="SVGID_2_" gradientUnits="userSpaceOnUse" x1="31.4824" y1="0.2749" x2="10.9607" y2="52.3097">
			<stop  offset="0" style="stop-color:#0057A2"/>
			<stop  offset="1" style="stop-color:#27A8E0"/>
		</linearGradient>
		<path style="fill:url(#SVGID_2_);" d="M22.743,0.831C14.111,2.807,6.726,8.873,3.017,16.9c-3.409,7.38-3.505,16.084-0.282,23.547
			c4.218,9.765,13.749,16.576,24.361,17.366c-6.498-1.69-11.921-6.334-14.4-12.608c-2.608-6.6-1.623-14.277,2.566-20.003
			c2.997-4.096,7.464-7.019,12.426-8.094c6.227-1.349,12.479,0.272,17.5,4.09c0.432-2.814,0.613-5.589,0.109-8.415
			c-0.547-3.063-1.783-6-3.578-8.542c-0.46-0.651-0.956-1.276-1.484-1.873c-0.492-0.555-1.659-0.757-2.359-0.976
			c-1.434-0.449-2.901-0.774-4.387-0.997C29.928-0.139,26.25,0.02,22.743,0.831"/>
	</g>
	<g>
		<path style="fill:#0057A2;" d="M83.214,17.568c2.48,0,5.202-0.062,7.745,0c6.292,0.061,5.928,12.1,0,12.1h-7.745V17.568z
			 M72.386,7.889v42.35h10.828V39.41h7.804c20.27,0,20.27-31.46,0-31.521H72.386z"/>
		<path style="fill:#0057A2;" d="M100.229,7.884c3.677,2.119,6.967,5.717,7.887,9.683h8.471v32.671h10.713V17.567h8.967V7.884
			H100.229z"/>
		<polygon style="fill:#0057A2;" points="176.741,7.768 159.863,26.159 143.285,7.768 139.294,7.768 139.294,50.238 150.363,50.238 
			150.363,31.363 159.316,40.799 160.529,40.799 169.542,31.363 169.542,50.238 180.613,50.238 180.613,7.768 		"/>
	</g>
</g>
</svg>
